<?xml version="1.0" encoding="UTF-8" standalone="no"?>
<svg
   xmlns:dc="http://purl.org/dc/elements/1.1/"
   xmlns:cc="http://creativecommons.org/ns#"
   xmlns:rdf="http://www.w3.org/1999/02/22-rdf-syntax-ns#"
   xmlns:svg="http://www.w3.org/2000/svg"
   xmlns="http://www.w3.org/2000/svg"
   xmlns:sodipodi="http://sodipodi.sourceforge.net/DTD/sodipodi-0.dtd"
   xmlns:inkscape="http://www.inkscape.org/namespaces/inkscape"
   version="1.1"
   id="svg2"
   xml:space="preserve"
   width="285.56"
   height="72.013336"
   viewBox="0 0 285.56 72.013336"
   sodipodi:docname="eunchurnlogo.eps"><metadata
     id="metadata8"><rdf:RDF><cc:Work
         rdf:about=""><dc:format>image/svg+xml</dc:format><dc:type
           rdf:resource="http://purl.org/dc/dcmitype/StillImage" /></cc:Work></rdf:RDF></metadata><defs
     id="defs6" /><sodipodi:namedview
     pagecolor="#ffffff"
     bordercolor="#666666"
     borderopacity="1"
     objecttolerance="10"
     gridtolerance="10"
     guidetolerance="10"
     inkscape:pageopacity="0"
     inkscape:pageshadow="2"
     inkscape:window-width="640"
     inkscape:window-height="480"
     id="namedview4" /><g
     id="g10"
     inkscape:groupmode="layer"
     inkscape:label="ink_ext_XXXXXX"
     transform="matrix(1.3333333,0,0,-1.3333333,0,72.013333)"><g
       id="g12"
       transform="scale(0.1)"><path
         d="m 88.2422,350.527 c 5.9531,13.825 14.8708,25.668 26.7738,33.571 12.89,8.886 25.781,13.82 40.652,13.82 15.863,0 29.742,-3.949 41.641,-11.844 11.902,-7.902 21.812,-18.765 27.765,-32.59 z M 2052.44,414.707 V 245.859 L 1827.36,515.418 V 386.074 h -5.95 c -25.78,0 -49.57,-6.914 -70.39,-18.765 v 45.421 h -1.99 v 1.977 h -90.22 V 257.715 c 0,-9.883 -1.99,-20.742 -5.96,-30.617 -3.96,-8.887 -9.91,-17.774 -17.84,-25.672 -7.94,-6.914 -15.87,-12.832 -25.78,-17.774 -9.91,-3.945 -19.84,-5.918 -30.73,-5.918 -10.92,0 -20.82,1.973 -30.75,5.918 -9.91,4.942 -18.83,10.86 -25.78,17.774 -7.93,7.898 -13.87,16.785 -17.85,25.672 -3.96,9.875 -6.93,20.734 -6.93,30.617 v 156.992 h -89.24 v -0.988 h -88.24 v -88.867 h -134.85 v 201.425 h -90.23 V 259.688 l -2.97,1.972 c -6.94,-9.875 -15.87,-16.789 -26.77,-22.715 -9.92,-5.918 -20.83,-9.863 -32.72,-11.847 -10.91,-1.969 -22.81,-1.969 -34.709,1.984 -10.902,1.973 -20.82,7.891 -30.731,14.805 -8.925,7.898 -16.859,16.785 -22.808,26.66 -5.949,9.871 -9.918,20.73 -11.902,32.582 -0.989,11.851 -0.989,23.695 1.984,34.562 3.969,14.809 8.926,25.668 13.883,32.582 5.953,7.899 15.863,14.809 28.754,23.696 l -52.547,84.918 c -20.824,-12.836 -38.672,-28.633 -53.543,-49.371 -7.934,-9.871 -13.879,-19.746 -19.832,-31.598 v 40.484 H 761.484 V 270.547 L 536.406,540.105 V 229.082 c -6.937,-6.914 -15.863,-12.844 -24.785,-16.797 -9.918,-3.945 -19.828,-6.906 -30.738,-6.906 -10.906,0 -20.82,2.961 -30.738,6.906 -9.915,3.953 -17.844,9.883 -25.782,17.774 -6.937,6.914 -12.883,15.8 -17.843,25.683 -3.965,9.867 -5.95,19.742 -5.95,30.602 v 156.008 h -90.226 v -78.993 c -1.985,7.899 -4.957,15.801 -7.934,23.7 -8.926,18.761 -20.824,35.546 -35.695,49.371 -14.867,13.824 -31.731,24.683 -50.567,32.582 -19.832,7.902 -39.66,11.847 -61.476,10.859 -21.813,0 -41.641,-4.933 -60.4767,-12.836 C 74.3594,458.152 58.4961,447.289 43.6211,432.48 29.7461,417.668 18.8398,400.883 10.9023,381.133 2.97266,362.371 0,341.641 0,320.902 l 0.992188,-42.457 c 0,-20.73 4.957032,-41.472 12.890612,-60.234 8.918,-18.758 19.8281,-35.543 34.7031,-49.363 14.8711,-13.828 31.7266,-24.688 51.5551,-32.59 18.839,-7.899 39.66,-11.844 60.484,-10.86 h 12.891 l -1.989,81.954 h -11.894 c -17.848,0 -33.711,4.933 -47.594,16.789 -13.8788,11.843 -22.8046,26.66 -26.7695,43.441 l 226.0625,4.938 c 0.992,-18.762 4.961,-35.547 11.898,-52.325 8.926,-19.757 21.813,-38.515 37.676,-54.316 14.875,-15.801 33.719,-27.637 54.539,-36.524 19.828,-8.886 42.637,-12.843 65.438,-12.843 19.832,0 39.66,2.961 57.512,9.875 h 88.242 V 294.242 L 850.719,24.6875 V 232.031 c 1.98,-3.945 4.961,-7.89 6.941,-11.836 11.895,-20.742 27.762,-39.504 47.594,-54.316 19.828,-14.805 42.633,-26.66 67.422,-32.578 24.785,-6.914 49.574,-7.903 74.364,-4.942 16.86,2.969 32.72,6.914 47.59,13.829 v -40.489 h 90.23 v 134.285 h 134.85 V 101.699 h 89.24 V 235 c 1.98,-14.805 5.94,-28.633 11.89,-42.461 8.93,-20.734 20.82,-38.508 36.69,-54.297 15.86,-15.801 34.7,-28.644 54.53,-37.531 20.82,-7.8985 42.64,-12.8321 66.44,-12.8321 22.8,0 45.6,4.9336 65.43,12.8321 9.92,4.934 19.83,9.875 28.76,15.801 v -14.813 h 78.33 v 136.27 c 0,8.886 0.99,17.773 4.96,26.656 3.96,7.895 8.92,15.793 15.86,22.711 5.95,5.922 13.88,10.855 22.81,14.809 7.93,3.949 16.85,5.921 26.76,5.921 h 5.95 V 101.699 h 90.23 v 167.86 L 2141.68,0 v 414.707 h -89.24"
         style="fill:#231f20;fill-opacity:1;fill-rule:evenodd;stroke:none"
         id="path14" /></g></g></svg>
